<svg width="160" height="24" viewBox="0 0 160 24" fill="none" xmlns="http://www.w3.org/2000/svg">
<g clip-path="url(#clip0_1154_60)">
<path d="M48.32 10.74L45.82 11.48C45.36 10.44 44.36 9.8 43.18 9.8C42.36 9.8 41.66 10.08 41.1 10.66C40.54 11.24 40.26 11.94 40.26 12.8C40.26 13.66 40.54 14.36 41.1 14.94C41.66 15.52 42.36 15.8 43.18 15.8C44.36 15.8 45.36 15.16 45.82 14.12L48.32 14.86C47.52 16.94 45.56 18.3 43.18 18.3C41.6 18.3 40.3 17.78 39.24 16.74C38.2 15.68 37.68 14.38 37.68 12.8C37.68 11.22 38.2 9.92 39.24 8.88C40.3 7.82 41.6 7.3 43.18 7.3C45.56 7.3 47.52 8.66 48.32 10.74ZM60.1169 13.72H51.8569C52.2369 15.08 53.4369 16 54.8969 16C55.9169 16 56.7369 15.64 57.3369 14.9L59.7569 15.6C58.7969 17.26 56.9969 18.3 54.8969 18.3C53.2969 18.3 51.9569 17.78 50.8769 16.74C49.8169 15.68 49.2769 14.38 49.2769 12.8C49.2769 11.22 49.7969 9.92 50.8369 8.88C51.8969 7.82 53.1969 7.3 54.7369 7.3C56.2769 7.3 57.5769 7.82 58.6169 8.88C59.6769 9.94 60.1969 11.24 60.1969 12.8C60.1969 13.02 60.1769 13.32 60.1169 13.72ZM51.8769 11.78H57.6169C57.2169 10.48 56.0569 9.6 54.6969 9.6C53.3969 9.6 52.2569 10.48 51.8769 11.78ZM61.5272 18V7.6H64.0272V8.86C64.7872 7.82 65.8272 7.3 67.1472 7.3C68.3272 7.3 69.2872 7.68 70.0672 8.46C70.8472 9.24 71.2472 10.2 71.2472 11.36V18H68.7472V12.06C68.7472 10.7 67.7472 9.68 66.4072 9.68C65.0472 9.68 64.0272 10.7 64.0272 12.06V18H61.5272ZM72.3031 9.78V7.6H73.7831V5.56H76.2831V7.6H78.8631V9.78H76.2831V14.36C76.2831 15.08 76.8231 15.62 77.5631 15.62H78.8631V18H77.3231C76.3231 18 75.4831 17.68 74.8031 17.06C74.1231 16.44 73.7831 15.66 73.7831 14.72V9.78H72.3031ZM82.7092 7.6V8.88C83.4292 7.82 84.5692 7.3 86.1292 7.3V10.08C85.8092 9.94 85.4692 9.86 85.1092 9.86C83.7292 9.86 82.7092 10.9 82.7092 12.28V18H80.2092V7.6H82.7092ZM91.6033 7.3C92.7833 7.3 93.8433 7.68 94.7633 8.42V7.6H97.2433V18H94.7633V17.18C93.8433 17.92 92.7833 18.3 91.6033 18.3C90.1633 18.3 88.9633 17.78 87.9833 16.74C87.0233 15.68 86.5433 14.38 86.5433 12.8C86.5433 11.22 87.0233 9.92 87.9833 8.88C88.9633 7.82 90.1633 7.3 91.6033 7.3ZM93.9033 10.66C93.3633 10.08 92.7033 9.8 91.9233 9.8C91.1433 9.8 90.4633 10.08 89.9233 10.66C89.3833 11.24 89.1233 11.94 89.1233 12.8C89.1233 13.66 89.3833 14.36 89.9233 14.94C90.4633 15.52 91.1433 15.8 91.9233 15.8C92.7033 15.8 93.3633 15.52 93.9033 14.94C94.4433 14.36 94.7233 13.66 94.7233 12.8C94.7233 11.94 94.4433 11.24 93.9033 10.66ZM101.665 18H99.1647V3H101.665V18ZM113.854 10.74L111.354 11.48C110.894 10.44 109.894 9.8 108.714 9.8C107.894 9.8 107.194 10.08 106.634 10.66C106.074 11.24 105.794 11.94 105.794 12.8C105.794 13.66 106.074 14.36 106.634 14.94C107.194 15.52 107.894 15.8 108.714 15.8C109.894 15.8 110.894 15.16 111.354 14.12L113.854 14.86C113.054 16.94 111.094 18.3 108.714 18.3C107.134 18.3 105.834 17.78 104.774 16.74C103.734 15.68 103.214 14.38 103.214 12.8C103.214 11.22 103.734 9.92 104.774 8.88C105.834 7.82 107.134 7.3 108.714 7.3C111.094 7.3 113.054 8.66 113.854 10.74ZM119.87 7.3C121.05 7.3 122.11 7.68 123.03 8.42V7.6H125.51V18H123.03V17.18C122.11 17.92 121.05 18.3 119.87 18.3C118.43 18.3 117.23 17.78 116.25 16.74C115.29 15.68 114.81 14.38 114.81 12.8C114.81 11.22 115.29 9.92 116.25 8.88C117.23 7.82 118.43 7.3 119.87 7.3ZM122.17 10.66C121.63 10.08 120.97 9.8 120.19 9.8C119.41 9.8 118.73 10.08 118.19 10.66C117.65 11.24 117.39 11.94 117.39 12.8C117.39 13.66 117.65 14.36 118.19 14.94C118.73 15.52 119.41 15.8 120.19 15.8C120.97 15.8 121.63 15.52 122.17 14.94C122.71 14.36 122.99 13.66 122.99 12.8C122.99 11.94 122.71 11.24 122.17 10.66ZM129.932 7.6V8.88C130.652 7.82 131.792 7.3 133.352 7.3V10.08C133.032 9.94 132.692 9.86 132.332 9.86C130.952 9.86 129.932 10.9 129.932 12.28V18H127.432V7.6H129.932ZM133.657 9.78V7.6H135.137V5.56H137.637V7.6H140.217V9.78H137.637V14.36C137.637 15.08 138.177 15.62 138.917 15.62H140.217V18H138.677C137.677 18 136.837 17.68 136.157 17.06C135.477 16.44 135.137 15.66 135.137 14.72V9.78H133.657Z" fill="white"/>
<path d="M1 10.6L10.6 4.9L13.8 6.8L4.2 12.5L1 10.6Z" fill="#1ED96F"/>
<path d="M26.6 14.4L29.8 12.5L33 14.4L29.8 16.3L26.6 14.4Z" fill="#1ED96F"/>
<path d="M10.6 4.9L13.8 3L17 4.9L13.8 6.8L10.6 4.9Z" fill="#1ED96F"/>
<path d="M17 4.9L20.2 3L23.4 4.9L20.2 6.8L17 4.9Z" fill="#1ED96F"/>
<path d="M26.6 10.6L29.8 8.7L33 10.6L29.8 12.5L26.6 10.6Z" fill="#1ED96F"/>
<path d="M17 20.1L26.6 14.4L29.8 16.3L20.2 22L17 20.1Z" fill="#1ED96F"/>
<path d="M13.8 3H20.2L17 4.9L13.8 3Z" fill="#1ED96F"/>
<path d="M1 14.4L1 10.6L4.2 12.5L1 14.4Z" fill="#1ED96F"/>
<path d="M5.8 9.65V15.35L1 12.5L5.8 9.65Z" fill="#1ED96F"/>
<path d="M20.2 22H13.8L17 20.1L20.2 22Z" fill="#1ED96F"/>
<path d="M12.2 19.15H21.8L17 22L12.2 19.15Z" fill="#1ED96F"/>
<path d="M28.2 15.35V9.65L33 12.5L28.2 15.35Z" fill="#1ED96F"/>
<path d="M21.8 5.85H12.2L17 3L21.8 5.85Z" fill="#1ED96F"/>
<path d="M33 10.6V14.4L29.8 12.5L33 10.6Z" fill="#1ED96F"/>
<path d="M13.8 22L1 14.4L4.2 12.5L17 20.1L13.8 22Z" fill="#1ED96F"/>
<path d="M13.7966 10.8374C13.8533 10.7118 14.0184 10.6138 14.2298 10.5801L17.828 10.0077C18.0394 9.97405 18.265 10.0099 18.4199 10.1018L21.0538 11.6658C21.2087 11.7577 21.2691 11.8917 21.2124 12.0172L20.2484 14.1536C20.1917 14.2792 20.0265 14.3773 19.8151 14.4108L16.2169 14.9833C16.0055 15.0169 15.7799 14.981 15.625 14.8891L12.9911 13.3252C12.8362 13.2333 12.7758 13.0994 12.8325 12.9738L13.7966 10.8374Z" fill="#1ED96F"/>
</g>
<defs>
<clipPath id="clip0_1154_60">
<rect width="160" height="24" fill="white"/>
</clipPath>
</defs>
</svg>
